<mxfile host="app.diagrams.net" modified="2024-06-24T02:33:25.198Z" agent="Mozilla/5.0 (Windows NT 10.0; Win64; x64) AppleWebKit/537.36 (KHTML, like Gecko) Chrome/126.0.0.0 Safari/537.36" etag="Xgm9_jDVeEw1juX_ukSs" version="24.6.2" type="github">
  <diagram name="ページ1" id="ACy2xaczlNmMlcxrZHE6">
    <mxGraphModel dx="1299" dy="1940" grid="1" gridSize="10" guides="1" tooltips="1" connect="1" arrows="1" fold="1" page="1" pageScale="1" pageWidth="827" pageHeight="1169" math="0" shadow="0">
      <root>
        <mxCell id="0" />
        <mxCell id="1" parent="0" />
        <mxCell id="h-ArM-h0paGhOoIdQ_Rl-1" value="" style="strokeWidth=1;shadow=0;dashed=0;align=center;html=1;shape=mxgraph.mockup.containers.browserWindow;rSize=0;strokeColor=#666666;strokeColor2=#008cff;strokeColor3=#c4c4c4;mainText=,;recursiveResize=0;" vertex="1" parent="1">
          <mxGeometry x="-20" y="-10" width="710" height="510" as="geometry" />
        </mxCell>
        <mxCell id="h-ArM-h0paGhOoIdQ_Rl-2" value="Page 1" style="strokeWidth=1;shadow=0;dashed=0;align=center;html=1;shape=mxgraph.mockup.containers.anchor;fontSize=17;fontColor=#666666;align=left;whiteSpace=wrap;" vertex="1" parent="h-ArM-h0paGhOoIdQ_Rl-1">
          <mxGeometry x="60" y="12" width="110" height="26" as="geometry" />
        </mxCell>
        <mxCell id="h-ArM-h0paGhOoIdQ_Rl-3" value="https://www.draw.io" style="strokeWidth=1;shadow=0;dashed=0;align=center;html=1;shape=mxgraph.mockup.containers.anchor;rSize=0;fontSize=17;fontColor=#666666;align=left;" vertex="1" parent="h-ArM-h0paGhOoIdQ_Rl-1">
          <mxGeometry x="130" y="60" width="250" height="26" as="geometry" />
        </mxCell>
        <mxCell id="h-ArM-h0paGhOoIdQ_Rl-9" value="&lt;b&gt;&lt;font style=&quot;font-size: 21px;&quot;&gt;どこつぶのようこそ&lt;/font&gt;&lt;/b&gt;" style="text;html=1;align=center;verticalAlign=middle;resizable=0;points=[];autosize=1;strokeColor=none;fillColor=none;" vertex="1" parent="h-ArM-h0paGhOoIdQ_Rl-1">
          <mxGeometry x="20" y="130" width="210" height="40" as="geometry" />
        </mxCell>
        <mxCell id="h-ArM-h0paGhOoIdQ_Rl-10" value="ユーザー名：&lt;div&gt;&lt;br&gt;&lt;/div&gt;" style="text;html=1;align=center;verticalAlign=middle;resizable=0;points=[];autosize=1;strokeColor=none;fillColor=none;spacingTop=-3;" vertex="1" parent="h-ArM-h0paGhOoIdQ_Rl-1">
          <mxGeometry x="30" y="170" width="100" height="40" as="geometry" />
        </mxCell>
        <mxCell id="h-ArM-h0paGhOoIdQ_Rl-11" value="********" style="strokeWidth=1;shadow=0;dashed=0;align=center;html=1;shape=mxgraph.mockup.forms.pwField;strokeColor=#999999;mainText=;align=left;fontColor=#666666;fontSize=17;spacingLeft=3;" vertex="1" parent="h-ArM-h0paGhOoIdQ_Rl-1">
          <mxGeometry x="120" y="199" width="150" height="20" as="geometry" />
        </mxCell>
        <mxCell id="h-ArM-h0paGhOoIdQ_Rl-12" value="" style="strokeWidth=1;shadow=0;dashed=0;align=center;html=1;shape=mxgraph.mockup.forms.pwField;strokeColor=#999999;mainText=;align=left;fontColor=#666666;fontSize=17;spacingLeft=3;" vertex="1" parent="h-ArM-h0paGhOoIdQ_Rl-1">
          <mxGeometry x="120" y="170" width="150" height="20" as="geometry" />
        </mxCell>
        <mxCell id="h-ArM-h0paGhOoIdQ_Rl-13" value="パスワード：" style="text;html=1;align=center;verticalAlign=middle;resizable=0;points=[];autosize=1;strokeColor=none;fillColor=none;" vertex="1" parent="h-ArM-h0paGhOoIdQ_Rl-1">
          <mxGeometry x="29" y="194" width="100" height="30" as="geometry" />
        </mxCell>
      </root>
    </mxGraphModel>
  </diagram>
</mxfile>
